<?xml version="1.0" encoding="UTF-8"?>
<svg id="Layer_1" data-name="Layer 1" xmlns="http://www.w3.org/2000/svg" xmlns:xlink="http://www.w3.org/1999/xlink" viewBox="0 0 400 400">
  <defs>
    <style>
      .cls-1 {
        fill: #ee9b00;
      }

      .cls-2 {
        fill: #0a9396;
      }
    </style>
    <filter id="drop-shadow-1" filterUnits="userSpaceOnUse">
      <feOffset dx="0" dy="0"/>
      <feGaussianBlur result="blur" stdDeviation="4"/>
      <feFlood flood-color="#000" flood-opacity=".56"/>
      <feComposite in2="blur" operator="in"/>
      <feComposite in="SourceGraphic"/>
    </filter>
    <filter id="drop-shadow-2" filterUnits="userSpaceOnUse">
      <feOffset dx="0" dy="0"/>
      <feGaussianBlur result="blur-2" stdDeviation="4"/>
      <feFlood flood-color="#000" flood-opacity=".56"/>
      <feComposite in2="blur-2" operator="in"/>
      <feComposite in="SourceGraphic"/>
    </filter>
  </defs>
  <path class="cls-2" d="m199.6,340.13c-27.21,0-53.62-7.88-76.46-22.8h-40.81v-40.81c-14.92-22.83-22.8-49.25-22.8-76.46s7.88-53.63,22.8-76.46v-40.81h40.81c22.83-14.92,49.25-22.8,76.46-22.8s53.63,7.88,76.46,22.8h40.81v40.81c14.92,22.83,22.8,49.24,22.8,76.46s-7.88,53.63-22.8,76.46v40.81h-40.81c-22.83,14.92-49.25,22.8-76.46,22.8Zm-67.3-52.14l3.79,2.7c18.77,13.14,40.73,20.1,63.51,20.1s44.86-6.95,63.53-20.11l3.78-2.7h20.62v-20.62l2.7-3.79c13.14-18.72,20.1-40.69,20.1-63.51s-6.95-44.86-20.11-63.53l-2.69-3.78v-20.62h-20.62l-3.79-2.7c-18.72-13.14-40.69-20.1-63.51-20.1s-44.86,6.95-63.53,20.11l-3.78,2.69h-20.62v20.62l-2.71,3.79c-13.14,18.76-20.09,40.73-20.09,63.51s6.95,44.86,20.1,63.53l2.7,3.78v20.62h20.62Z"/>
  <g id="Sword">
    <path class="cls-1" d="m173.51,208.81c-2.46-2.47-2.84-6.33-.9-9.23l37.29-55.56c.46-.69.99-1.34,1.59-1.93,1.95-1.95,4.47-3.22,7.19-3.63l36.07-5.39c3.42-.51,6.88.63,9.32,3.07s3.58,5.9,3.07,9.32l-5.4,36.07c-.41,2.72-1.68,5.25-3.63,7.19-.59.59-1.24,1.12-1.93,1.59l-55.56,37.29c-2.9,1.94-6.76,1.57-9.23-.9l-.28-.28c-2.87-2.87-2.85-7.54.06-10.38l30.19-29.5c2.01-1.96,2.08-5.17.15-7.22-1.98-2.1-5.29-2.17-7.36-.15l-30.39,29.7c-2.86,2.79-7.43,2.77-10.26-.06h0Zm46.97,23.55c-2.74-2.68-6.98-3.07-10.16-.93l-12.27,8.24c-3.21,2.16-7.49,1.74-10.23-1l-26.27-26.27c-2.74-2.73-3.15-7.02-1-10.23l8.24-12.27c2.14-3.18,1.74-7.42-.93-10.16-3.59-3.67-9.64-3.11-12.5,1.15l-8.2,12.22c-6.58,9.81-5.31,22.91,3.05,31.27l4.96,4.96-4.19,4.39c-2.76,2.76-6.79,3.89-10.55,2.86-3.67-1-7.76-.07-10.66,2.8-4.34,4.31-4.21,11.39.12,15.72l15.25,15.25c4.38,4.38,11.55,4.46,15.85,0,2.78-2.89,3.67-6.91,2.68-10.53-1.03-3.76.1-7.79,2.86-10.55l4.2-4.39,5.14,5.14c8.36,8.36,21.46,9.63,31.27,3.05l12.22-8.2c4.26-2.86,4.82-8.91,1.15-12.5h0Zm0,0"/>
  </g>
</svg>