<?xml version="1.0" encoding="UTF-8"?>
<svg id="Layer_4" data-name="Layer 4" xmlns="http://www.w3.org/2000/svg" xmlns:xlink="http://www.w3.org/1999/xlink" viewBox="0 0 1152.66 350">
  <defs>
    <style>
      .cls-1 {
      }

      .cls-1, .cls-2, .cls-3, .cls-4, .cls-5 {
        fill: #ee9b00;
      }

      .cls-2 {
      }

      .cls-6 {
      }

      .cls-6, .cls-7, .cls-8, .cls-9, .cls-10 {
        fill: #0a9396;
      }

      .cls-7 {
      }

      .cls-8 {
      }

      .cls-9 {
      }

      .cls-3 {
      }

      .cls-4 {
      }

      .cls-10 {
      }

      .cls-5 {
      }
    </style>
    <filter id="drop-shadow-1" filterUnits="userSpaceOnUse">
      <feOffset dx="0" dy="0"/>
      <feGaussianBlur result="blur" stdDeviation="4"/>
      <feFlood flood-color="#000" flood-opacity=".56"/>
      <feComposite in2="blur" operator="in"/>
      <feComposite in="SourceGraphic"/>
    </filter>
    <filter id="drop-shadow-2" filterUnits="userSpaceOnUse">
      <feOffset dx="0" dy="0"/>
      <feGaussianBlur result="blur-2" stdDeviation="4"/>
      <feFlood flood-color="#000" flood-opacity=".56"/>
      <feComposite in2="blur-2" operator="in"/>
      <feComposite in="SourceGraphic"/>
    </filter>
    <filter id="drop-shadow-3" filterUnits="userSpaceOnUse">
      <feOffset dx="0" dy="0"/>
      <feGaussianBlur result="blur-3" stdDeviation="4"/>
      <feFlood flood-color="#000" flood-opacity=".56"/>
      <feComposite in2="blur-3" operator="in"/>
      <feComposite in="SourceGraphic"/>
    </filter>
    <filter id="drop-shadow-4" filterUnits="userSpaceOnUse">
      <feOffset dx="0" dy="0"/>
      <feGaussianBlur result="blur-4" stdDeviation="4"/>
      <feFlood flood-color="#000" flood-opacity=".56"/>
      <feComposite in2="blur-4" operator="in"/>
      <feComposite in="SourceGraphic"/>
    </filter>
    <filter id="drop-shadow-5" filterUnits="userSpaceOnUse">
      <feOffset dx="0" dy="0"/>
      <feGaussianBlur result="blur-5" stdDeviation="4"/>
      <feFlood flood-color="#000" flood-opacity=".56"/>
      <feComposite in2="blur-5" operator="in"/>
      <feComposite in="SourceGraphic"/>
    </filter>
    <filter id="drop-shadow-6" filterUnits="userSpaceOnUse">
      <feOffset dx="0" dy="0"/>
      <feGaussianBlur result="blur-6" stdDeviation="4"/>
      <feFlood flood-color="#000" flood-opacity=".56"/>
      <feComposite in2="blur-6" operator="in"/>
      <feComposite in="SourceGraphic"/>
    </filter>
    <filter id="drop-shadow-7" filterUnits="userSpaceOnUse">
      <feOffset dx="0" dy="0"/>
      <feGaussianBlur result="blur-7" stdDeviation="4"/>
      <feFlood flood-color="#000" flood-opacity=".56"/>
      <feComposite in2="blur-7" operator="in"/>
      <feComposite in="SourceGraphic"/>
    </filter>
    <filter id="drop-shadow-8" filterUnits="userSpaceOnUse">
      <feOffset dx="0" dy="0"/>
      <feGaussianBlur result="blur-8" stdDeviation="4"/>
      <feFlood flood-color="#000" flood-opacity=".56"/>
      <feComposite in2="blur-8" operator="in"/>
      <feComposite in="SourceGraphic"/>
    </filter>
    <filter id="drop-shadow-9" filterUnits="userSpaceOnUse">
      <feOffset dx="0" dy="0"/>
      <feGaussianBlur result="blur-9" stdDeviation="4"/>
      <feFlood flood-color="#000" flood-opacity=".56"/>
      <feComposite in2="blur-9" operator="in"/>
      <feComposite in="SourceGraphic"/>
    </filter>
    <filter id="drop-shadow-10" filterUnits="userSpaceOnUse">
      <feOffset dx="0" dy="0"/>
      <feGaussianBlur result="blur-10" stdDeviation="4"/>
      <feFlood flood-color="#000" flood-opacity=".56"/>
      <feComposite in2="blur-10" operator="in"/>
      <feComposite in="SourceGraphic"/>
    </filter>
  </defs>
  <path class="cls-5" d="m683.16,206.82l-10.36-19.24h-1.55v19.24h-14.5v-52.17h22.87c4.19,0,7.74.73,10.66,2.18,2.91,1.46,5.11,3.45,6.59,5.99,1.48,2.54,2.22,5.39,2.22,8.55,0,3.55-.98,6.67-2.92,9.36-1.95,2.69-4.8,4.6-8.55,5.74l11.77,20.35h-16.21Zm-11.91-29.16h7.18c1.97,0,3.45-.47,4.44-1.41.99-.94,1.48-2.29,1.48-4.07,0-1.68-.51-3-1.52-3.96-1.01-.96-2.48-1.44-4.4-1.44h-7.18v10.88Z"/>
  <path class="cls-3" d="m740.66,198.31h-18.5l-2.81,8.51h-15.24l19.02-52.17h16.72l18.94,52.17h-15.32l-2.81-8.51Zm-3.63-11.1l-5.62-16.87-5.55,16.87h11.17Z"/>
  <path class="cls-4" d="m778.03,154.65v52.17h-14.5v-52.17h14.5Z"/>
  <path class="cls-1" d="m820.36,157.94c4.12,2.2,7.29,5.27,9.51,9.21,2.22,3.95,3.33,8.46,3.33,13.54s-1.12,9.52-3.37,13.47c-2.25,3.95-5.43,7.04-9.55,9.29-4.12,2.25-8.89,3.37-14.32,3.37h-20.65v-52.17h20.65c5.48,0,10.27,1.1,14.39,3.29Zm-5.51,32.6c2.42-2.32,3.63-5.6,3.63-9.84s-1.21-7.61-3.63-9.95c-2.42-2.34-5.75-3.51-9.99-3.51h-5.03v26.79h5.03c4.24,0,7.57-1.16,9.99-3.48Z"/>
  <path class="cls-7" d="m899.61,154.65v52.17h-14.5v-28.79l-9.84,28.79h-12.14l-9.92-29.01v29.01h-14.5v-52.17h17.54l13.1,33.89,12.8-33.89h17.46Z"/>
  <path class="cls-9" d="m941.9,198.31h-18.5l-2.81,8.51h-15.24l19.02-52.17h16.72l18.94,52.17h-15.32l-2.81-8.51Zm-3.63-11.1l-5.62-16.87-5.55,16.87h11.17Z"/>
  <path class="cls-10" d="m1000.21,154.65v11.54h-13.91v40.63h-14.5v-40.63h-13.76v-11.54h42.18Z"/>
  <path class="cls-6" d="m1020.97,166.27v8.51h16.65v11.03h-16.65v9.4h18.87v11.62h-33.37v-52.17h33.37v11.62h-18.87Z"/>
  <path class="cls-8" d="m601.05,224.07c-8.42,0-16.59-2.44-23.65-7.05h-12.63v-12.63c-4.62-7.06-7.05-15.24-7.05-23.65s2.44-16.59,7.05-23.65v-12.63h12.63c7.06-4.62,15.24-7.05,23.65-7.05s16.59,2.44,23.65,7.05h12.63v12.63c4.62,7.06,7.05,15.23,7.05,23.65s-2.44,16.59-7.05,23.65v12.63h-12.63c-7.06,4.62-15.24,7.05-23.65,7.05Zm-20.82-16.13l1.17.84c5.81,4.07,12.6,6.22,19.65,6.22s13.88-2.15,19.65-6.22l1.17-.83h6.38v-6.38l.84-1.17c4.07-5.79,6.22-12.59,6.22-19.65s-2.15-13.88-6.22-19.65l-.83-1.17v-6.38h-6.38l-1.17-.84c-5.79-4.07-12.59-6.22-19.65-6.22s-13.88,2.15-19.65,6.22l-1.17.83h-6.38v6.38l-.84,1.17c-4.06,5.81-6.22,12.6-6.22,19.65s2.15,13.88,6.22,19.65l.83,1.17v6.38h6.38Z"/>
  <g id="Sword">
    <path class="cls-2" d="m592.98,183.44c-.76-.76-.88-1.96-.28-2.85l11.54-17.19c.14-.21.31-.41.49-.6.6-.6,1.38-1,2.23-1.12l11.16-1.67c1.06-.16,2.13.19,2.88.95s1.11,1.83.95,2.88l-1.67,11.16c-.13.84-.52,1.62-1.12,2.23-.18.18-.38.35-.6.49l-17.19,11.54c-.9.6-2.09.48-2.85-.28l-.09-.09c-.89-.89-.88-2.33.02-3.21l9.34-9.13c.62-.61.64-1.6.05-2.23-.61-.65-1.64-.67-2.28-.05l-9.4,9.19c-.88.86-2.3.86-3.17-.02h0Zm14.53,7.28c-.85-.83-2.16-.95-3.14-.29l-3.8,2.55c-.99.67-2.32.54-3.16-.31l-8.13-8.13c-.85-.85-.98-2.17-.31-3.16l2.55-3.8c.66-.98.54-2.3-.29-3.14-1.11-1.13-2.98-.96-3.87.35l-2.54,3.78c-2.04,3.04-1.64,7.09.94,9.67l1.53,1.53-1.3,1.36c-.85.85-2.1,1.2-3.26.88-1.14-.31-2.4-.02-3.3.87-1.34,1.33-1.3,3.52.04,4.86l4.72,4.72c1.35,1.35,3.57,1.38,4.9,0,.86-.89,1.14-2.14.83-3.26-.32-1.16.03-2.41.89-3.26l1.3-1.36,1.59,1.59c2.59,2.59,6.64,2.98,9.67.94l3.78-2.54c1.32-.88,1.49-2.76.35-3.87h0Zm0,0"/>
  </g>
</svg>