<?xml version="1.0" encoding="UTF-8"?>
<svg id="Layer_1" data-name="Layer 1" xmlns="http://www.w3.org/2000/svg" viewBox="0 0 400 400">
  <defs>
    <style>
      .cls-2 {
        fill: currentColor;
      }
    </style>
  </defs>
  <path class="cls-2" d="m199.6,340.13c-27.21,0-53.62-7.88-76.46-22.8h-40.81v-40.81c-14.92-22.83-22.8-49.25-22.8-76.46s7.88-53.63,22.8-76.46v-40.81h40.81c22.83-14.92,49.25-22.8,76.46-22.8s53.63,7.88,76.46,22.8h40.81v40.81c14.92,22.83,22.8,49.24,22.8,76.46s-7.88,53.63-22.8,76.46v40.81h-40.81c-22.83,14.92-49.25,22.8-76.46,22.8Zm-67.3-52.14l3.79,2.7c18.77,13.14,40.73,20.1,63.51,20.1s44.86-6.95,63.53-20.11l3.78-2.7h20.62v-20.62l2.7-3.79c13.14-18.72,20.1-40.69,20.1-63.51s-6.95-44.86-20.11-63.53l-2.69-3.78v-20.62h-20.62l-3.79-2.7c-18.72-13.14-40.69-20.1-63.51-20.1s-44.86,6.95-63.53,20.11l-3.78,2.69h-20.62v20.62l-2.71,3.79c-13.14,18.76-20.09,40.73-20.09,63.51s6.95,44.86,20.1,63.53l2.7,3.78v20.62h20.62Z"/>
</svg>